<svg xmlns="http://www.w3.org/2000/svg" viewBox="0 0 900 220" role="img" aria-labelledby="title">
  <title id="title">Пару Пар</title>
  <rect width="900" height="220" fill="none"/>
  <g fill="#df8d00">
    <text x="18" y="146" font-family="Georgia, 'Times New Roman', serif" font-size="118" font-weight="900" letter-spacing="-7">ПАРУ</text>
    <text x="552" y="146" font-family="Georgia, 'Times New Roman', serif" font-size="118" font-weight="900" letter-spacing="-7">ПАР</text>
    <path d="M450 111c35-45 90-45 125 0-35-22-90-22-125 0Z" opacity=".95"/>
    <path d="M454 118c45-20 77 15 50 47-1-26-20-43-50-47Z"/>
    <path d="M570 118c-45-20-77 15-50 47 1-26 20-43 50-47Z"/>
    <path d="M493 65c23-31 54-32 74 0-24-12-50-12-74 0Z" opacity=".8"/>
  </g>
</svg>
