<svg xmlns="http://www.w3.org/2000/svg" viewBox="0 0 1600 1000"><rect width="1600" height="1000" fill="#120b06"/><rect y="520" width="1600" height="480" fill="#2a180c"/><g stroke="#8d6f38" stroke-width="18" stroke-linecap="round"><path d="M110 710c310-170 520-245 780-250 250-5 395-80 615-220"/><path d="M150 780c350-120 545-155 810-150 235 5 390-55 520-145"/><path d="M210 850c350-60 620-45 900-75 155-15 260-60 360-125"/></g><g stroke="#57723d" stroke-width="34" stroke-linecap="round" opacity=".82"><path d="M710 610c190-210 335-255 565-300"/><path d="M840 650c155-170 330-255 560-300"/></g><text x="70" y="160" fill="#df8d00" font-family="Georgia,serif" font-size="96" font-weight="900">травы и веники</text></svg>
